<svg width="25" height="24" viewBox="0 0 25 24" fill="none" xmlns="http://www.w3.org/2000/svg">
<mask id="mask0_139493_5939" style="mask-type:alpha" maskUnits="userSpaceOnUse" x="0" y="0" width="25" height="24">
<rect x="0.248535" width="24" height="24" fill="#D9D9D9"/>
</mask>
<g mask="url(#mask0_139493_5939)">
<path d="M11.5485 14.3L8.94851 11.7C8.63184 11.3833 8.56101 11.0208 8.73601 10.6125C8.91101 10.2042 9.22351 10 9.67351 10H14.8235C15.2735 10 15.586 10.2042 15.761 10.6125C15.936 11.0208 15.8652 11.3833 15.5485 11.7L12.9485 14.3C12.8485 14.4 12.7402 14.475 12.6235 14.525C12.5068 14.575 12.3818 14.6 12.2485 14.6C12.1152 14.6 11.9902 14.575 11.8735 14.525C11.7568 14.475 11.6485 14.4 11.5485 14.3Z" fill="#2A3647"/>
</g>
</svg>
